<svg xmlns="http://www.w3.org/2000/svg" version="1.1" xmlns:xlink="http://www.w3.org/1999/xlink" xmlns:svgjs="http://svgjs.dev/svgjs" width="1000" height="1000" viewBox="0 0 1000 1000"><rect width="1000" height="1000" fill="#ffffff"></rect><g transform="matrix(0.7,0,0,0.7,149.57575757575756,282.1283242914981)"><svg viewBox="0 0 396 247" data-background-color="#ffffff" preserveAspectRatio="xMidYMid meet" height="623" width="1000" xmlns="http://www.w3.org/2000/svg" xmlns:xlink="http://www.w3.org/1999/xlink"><g id="tight-bounds" transform="matrix(1,0,0,1,0.2400000000000091,-0.09999999999999432)"><svg viewBox="0 0 395.52 247.2" height="247.2" width="395.52"><g><svg></svg></g><g><svg viewBox="0 0 395.52 247.2" height="247.2" width="395.52"><g><g><path xmlns="http://www.w3.org/2000/svg" d="M253.278-0.001l0 86.171h-10.761l0-86.171zM274.8-0.001l0 86.171h-10.761v-86.171zM274.8 163.435l-1.434-2.405h1.434zM296.262-0.001v86.171h-10.762v-86.171zM296.262 199.142l-10.762-18.22 0-19.892 10.762 0zM142.242 247.201l0-86.171 10.761 0v86.171zM120.72 247.201l0-86.171h10.761v86.171zM120.72 83.765l1.434 2.405-1.434 0zM99.258 247.201l0-86.171 10.7 0v86.171zM99.258 48.058l10.7 18.22 0 19.892-10.7 0zM254.929 247.201l-52.964-86.171 12.534 0 52.964 86.171zM102.988-0.001h12.534l52.965 86.171-12.535 0zM279.998 247.201l-52.858-86.171 12.776 0 52.922 86.171zM128.362-0.001h12.657l52.922 86.171-12.721 0zM153.553-0.001h12.535l52.867 86.171-12.587 0zM307.023 229.714l0-68.684 10.761 0v86.171c0 0-4.239 0-12.718 0l-52.815-86.171 12.633 0zM307.023-0.001h10.761v86.171l-10.761 0zM229.677 247.201l-52.96-86.171 12.557 0 52.815 86.171zM88.497 17.486l0 68.684-10.761 0v-86.171c0 0 4.28 0 12.84 0l52.815 86.171-12.682 0zM88.497 247.201h-10.761l0-86.171h10.761z" fill="#ff0000" fill-rule="nonzero" stroke="none" stroke-width="1" stroke-linecap="butt" stroke-linejoin="miter" stroke-miterlimit="10" stroke-dasharray="" stroke-dashoffset="0" font-family="none" font-weight="none" font-size="none" text-anchor="none" style="mix-blend-mode: normal" data-fill-palette-color="tertiary"></path></g></g><g transform="matrix(1,0,0,1,0,94.62574120494425)"><svg viewBox="0 0 395.52 57.9485175901115" height="57.9485175901115" width="395.52"><g><svg viewBox="0 0 395.52 57.9485175901115" height="57.9485175901115" width="395.52"><g><svg viewBox="0 0 395.52 57.9485175901115" height="57.9485175901115" width="395.52"><g><svg viewBox="0 0 395.52 57.9485175901115" height="57.9485175901115" width="395.52"><g><svg viewBox="0 0 395.52 57.9485175901115" height="57.9485175901115" width="395.52"><g><svg viewBox="0 0 395.52 57.9485175901115" height="57.9485175901115" width="395.52"><g transform="matrix(1,0,0,1,0,0)"><svg width="395.52" viewBox="2.2699999809265137 -40.43000030517578 282.4300231933594 41.380001068115234" height="57.9485175901115" data-palette-color="#ff0000"><path d="M30.98-40.43L30.98-19.46 29.22-22.36 29.22-40.43 30.98-40.43ZM34.5-40.43L34.5-13.7 32.74-16.65 32.74-40.43 34.5-40.43ZM38.01-40.43L38.01-7.86 36.25-10.84 36.25-40.43 38.01-40.43ZM12.82 0L12.82-20.97 14.58-18.07 14.58 0 12.82 0ZM9.3 0L9.3-26.73 11.06-23.78 11.06 0 9.3 0ZM5.79 0L5.79-32.57 7.54-29.59 7.54 0 5.79 0ZM31.25 0L6.4-40.43 8.45-40.43 33.3 0 31.25 0ZM35.35 0L10.55-40.43 12.62-40.43 37.45 0 35.35 0ZM39.45 0L14.67-40.43 16.72-40.43 39.77-2.86 39.77-40.43 41.53-40.43 41.53 0Q41.53 0 39.45 0L39.45 0ZM27.12 0L4.03-37.57 4.03 0 2.27 0 2.27-40.43Q2.27-40.43 4.37-40.43L4.37-40.43 29.15 0 27.12 0ZM54.95-35.16L54.95 0 53.2 0 53.2-35.16 54.95-35.16ZM51.44-35.16L51.44 0 49.68 0 49.68-35.16 51.44-35.16ZM47.92-35.16L47.92 0 46.16 0 46.16-35.16 47.92-35.16ZM58.47-13.21L58.47-8.79 75.29-8.79 75.29-7.03 58.47-7.03 58.47-5.27 75.29-5.27 75.29-3.52 58.47-3.52 58.47-1.76 75.29-1.76 75.29 0 56.71 0 56.71-35.16 75.29-35.16 75.29-33.4 58.47-33.4 58.47-31.64 75.29-31.64 75.29-29.88 58.47-29.88 58.47-28.13 75.29-28.13 75.29-26.37 58.47-26.37 58.47-22 74.31-22 74.31-20.24 58.47-20.24 58.47-18.48 74.31-18.48 74.31-16.72 58.47-16.72 58.47-14.97 74.31-14.97 74.31-13.21 58.47-13.21ZM85.74 0L85.74-25.42 87.5-25.42 87.5 0 85.74 0ZM105.07-33.4L78.71-33.4 78.71-35.16 105.07-35.16 105.07-33.4ZM105.07-29.88L78.71-29.88 78.71-31.64 105.07-31.64 105.07-29.88ZM105.07-26.37L78.71-26.37 78.71-28.13 105.07-28.13 105.07-26.37ZM96.28 0L96.28-25.42 98.04-25.42 98.04 0 96.28 0ZM92.77 0L92.77-25.42 94.53-25.42 94.53 0 92.77 0ZM89.25 0L89.25-25.42 91.01-25.42 91.01 0 89.25 0ZM128.19-22.85L108.85-22.85 108.85-24.61 128.19-24.61 128.19-22.85ZM128.19-19.34L108.85-19.34 108.85-21.09 128.19-21.09 128.19-19.34ZM128.19-15.82L108.85-15.82 108.85-17.58 128.19-17.58 128.19-15.82ZM143.15 0L143.15-40.43 144.91-40.43 144.91 0 143.15 0ZM139.64 0L139.64-40.43 141.4-40.43 141.4 0 139.64 0ZM136.12 0L136.12-40.43 137.88-40.43 137.88 0 136.12 0ZM132.61 0L132.61-40.43 134.37-40.43 134.37 0 132.61 0ZM177.28-35.16L177.28-14.18 175.52-17.38 175.52-35.16 177.28-35.16ZM180.8-35.16L180.8-8.11 179.04-11.08 179.04-35.16 180.8-35.16ZM156.58 0L156.58-20.97 158.34-17.77 158.34 0 156.58 0ZM153.06 0L153.06-27.29 154.82-24.07 154.82 0 153.06 0ZM174.04 0L153.67-35.16 155.72-35.16 176.09 0 174.04 0ZM178.14 0L157.82-35.16 159.9-35.16 180.24 0 178.14 0ZM182.24 0L161.95-35.16 164-35.16 182.56-3.05 182.56-35.16 184.31-35.16 184.31 0 182.24 0ZM169.91 0L151.31-32.13 151.31 0 149.55 0 149.55-35.16 151.65-35.16 171.94 0 169.91 0ZM209.19-10.55L199.45-10.55 199.45-24.61Q199.45-24.61 209.19-24.61L209.19-24.61Q211.9-24.61 213.84-22.56 215.78-20.51 215.78-17.63L215.78-17.63Q215.78-14.65 213.85-12.6 211.92-10.55 209.19-10.55L209.19-10.55ZM201.21-22.85L201.21-12.3 209.19-12.3Q211.17-12.3 212.57-13.84 213.97-15.38 213.97-17.63L213.97-17.63Q213.97-19.78 212.57-21.31 211.17-22.85 209.19-22.85L209.19-22.85 201.21-22.85ZM197.69-26.37L197.69-8.79 209.19-8.79Q212.66-8.79 215.12-11.36 217.59-13.94 217.59-17.63L217.59-17.63Q217.59-21.24 215.11-23.8 212.63-26.37 209.19-26.37L209.19-26.37 197.69-26.37ZM209.19-7.03L195.93-7.03 195.93-28.13 209.19-28.13Q213.36-28.13 216.38-25.04 219.39-21.95 219.39-17.63L219.39-17.63Q219.39-13.21 216.39-10.12 213.39-7.03 209.19-7.03L209.19-7.03ZM194.17-29.88L194.17-5.27 209.19-5.27Q212.41-5.27 215.17-6.91 217.93-8.54 219.57-11.4 221.2-14.26 221.2-17.63L221.2-17.63Q221.2-20.92 219.57-23.75 217.93-26.59 215.16-28.23 212.39-29.88 209.19-29.88L209.19-29.88 194.17-29.88ZM209.19-3.52L192.42-3.52 192.42-31.64 209.19-31.64Q212.88-31.64 216.06-29.76 219.25-27.88 221.13-24.65 223.01-21.41 223.01-17.63L223.01-17.63Q223.01-13.79 221.13-10.53 219.25-7.28 216.06-5.4 212.88-3.52 209.19-3.52L209.19-3.52ZM190.66-33.4L190.66-1.76 209.19-1.76Q213.36-1.76 216.95-3.87 220.54-5.98 222.68-9.64 224.81-13.31 224.81-17.63L224.81-17.63Q224.81-21.88 222.68-25.52 220.54-29.17 216.94-31.29 213.34-33.4 209.19-33.4L209.19-33.4 190.66-33.4ZM209.19 0L209.19 0 188.9 0 188.9-35.16 209.19-35.16Q213.83-35.16 217.84-32.8 221.86-30.44 224.24-26.4 226.62-22.36 226.62-17.63L226.62-17.63Q226.62-14.04 225.22-10.77 223.81-7.5 221.46-5.14 219.1-2.78 215.88-1.39 212.66 0 209.19 0ZM241.1 0L241.1-35.16 242.85-35.16 242.85 0 241.1 0ZM237.58 0L237.58-35.16 239.34-35.16 239.34 0 237.58 0ZM234.06 0L234.06-35.16 235.82-35.16 235.82 0 234.06 0ZM230.55 0L230.55-35.16 232.31-35.16 232.31 0 230.55 0ZM272.39 0L272.39-17.33Q272.39-20.46 270.46-22.17 268.53-23.88 265.36-23.88L265.36-23.88Q262.68-23.88 260.75-22.02 258.82-20.17 258.82-17.58L258.82-17.58Q258.82-16.11 259.21-14.95 259.6-13.79 260.27-13.02 260.94-12.26 261.87-11.76 262.8-11.25 263.81-11.04 264.82-10.82 265.97-10.82L265.97-10.82Q268.75-10.82 271.05-12.18L271.05-12.18 271.05-10.42Q268.68-9.18 265.95-9.18L265.95-9.18Q264.19-9.18 262.64-9.66 261.09-10.13 259.82-11.1 258.55-12.06 257.8-13.73 257.06-15.41 257.06-17.58L257.06-17.58Q257.06-20.95 259.43-23.29 261.8-25.63 265.36-25.63L265.36-25.63Q269.29-25.63 271.72-23.43 274.15-21.22 274.15-17.33L274.15-17.33 274.15 0 272.39 0ZM277.67-17.33L277.67-17.33 277.67 0 275.91 0 275.91-17.33Q275.91-21.95 272.95-24.67 270-27.39 265.36-27.39L265.36-27.39Q261.06-27.39 258.18-24.54 255.3-21.68 255.3-17.58L255.3-17.58Q255.3-15.09 256.17-13.11 257.04-11.13 258.52-9.94 260.01-8.74 261.86-8.12 263.7-7.5 265.75-7.5L265.75-7.5Q268.53-7.5 271.05-8.79L271.05-8.79 271.05-6.93Q268.41-5.83 265.73-5.83L265.73-5.83Q263.31-5.83 261.14-6.58 258.96-7.32 257.26-8.75 255.55-10.18 254.55-12.46 253.54-14.75 253.54-17.58L253.54-17.58Q253.54-22.39 256.95-25.77 260.36-29.15 265.36-29.15L265.36-29.15Q268.88-29.15 271.66-27.72 274.44-26.29 276.05-23.58 277.67-20.87 277.67-17.33ZM281.18-17.33L281.18-17.33 281.18 0 279.42 0 279.42-17.33Q279.42-21.36 277.58-24.48 275.74-27.59 272.54-29.25 269.34-30.91 265.36-30.91L265.36-30.91Q261.58-30.91 258.45-29.11 255.33-27.32 253.56-24.27 251.79-21.22 251.79-17.58L251.79-17.58Q251.79-14.45 252.93-11.88 254.08-9.3 256.02-7.64 257.96-5.98 260.44-5.07 262.92-4.15 265.63-4.15L265.63-4.15Q268.39-4.15 271.05-5.3L271.05-5.3 271.05-3.52Q268.27-2.47 265.58-2.47L265.58-2.47Q261.36-2.47 257.82-4.37 254.28-6.27 252.15-9.77 250.03-13.26 250.03-17.58L250.03-17.58Q250.03-20.65 251.21-23.44 252.4-26.22 254.42-28.25 256.45-30.27 259.31-31.47 262.16-32.67 265.36-32.67L265.36-32.67Q269.83-32.67 273.43-30.76 277.03-28.86 279.11-25.34 281.18-21.83 281.18-17.33ZM284.7-17.33L284.7-17.33 284.7 0 282.94 0 282.94-17.33Q282.94-22.31 280.62-26.23 278.3-30.15 274.3-32.29 270.29-34.42 265.36-34.42L265.36-34.42Q260.62-34.42 256.69-32.15 252.76-29.88 250.52-26.01 248.27-22.14 248.27-17.58L248.27-17.58Q248.27-14.58 249.24-11.88 250.2-9.18 251.87-7.17 253.54-5.15 255.73-3.69 257.91-2.22 260.44-1.46 262.97-0.71 265.58-0.71L265.58-0.71Q268.46-0.71 271.05-1.81L271.05-1.81 271.05 0Q268.34 0.95 265.48 0.95L265.48 0.95Q262.53 0.95 259.73 0.12 256.94-0.71 254.56-2.33 252.18-3.96 250.37-6.16 248.56-8.37 247.54-11.33 246.51-14.28 246.51-17.58L246.51-17.58Q246.51-21.36 247.94-24.79 249.37-28.22 251.85-30.73 254.33-33.23 257.85-34.7 261.38-36.18 265.36-36.18L265.36-36.18Q269.41-36.18 272.98-34.81 276.54-33.45 279.13-31.02 281.72-28.59 283.21-25.05 284.7-21.51 284.7-17.33Z" opacity="1" transform="matrix(1,0,0,1,0,0)" fill="#ff0000" class="undefined-text-0" data-fill-palette-color="primary" id="text-0"></path></svg></g></svg></g></svg></g></svg></g></svg></g></svg></g></svg></g></svg></g><defs></defs></svg><rect width="395.52" height="247.2" fill="none" stroke="none" visibility="hidden"></rect></g></svg></g></svg>