<?xml version="1.0" encoding="UTF-8" standalone="no"?> <svg xmlns="http://www.w3.org/2000/svg" viewBox="0 0 64 64"><defs><style>.cls-1{fill:#ffdb58;}.cls-2{fill:#f39500;}.cls-3{fill:#b67000;}.cls-4{fill:#008de9;}.cls-5{fill:#f52b26;}.cls-6{fill:#faae48;}.cls-7{fill:#d48200;}.cls-8{fill:#965d00;}</style></defs><g id="flat"><path class="cls-1" d="M31,15,27.54,26.23A2.5,2.5,0,0,1,25.15,28h0a2.52,2.52,0,0,1-1.9-.87L18,21l.75,6.78a2,2,0,0,1-2,2.22H15a2,2,0,0,1-1.58-.77L7,21H5l6,17V48H53V38l6-17H57l-6.4,8.23A2,2,0,0,1,49,30H47.23a2,2,0,0,1-2-2.22L46,21l-5.25,6.13a2.52,2.52,0,0,1-1.9.87h0a2.5,2.5,0,0,1-2.39-1.77L33,15Z"/><rect class="cls-2" x="11" y="38" width="42" height="10"/><rect class="cls-3" x="8" y="48" width="48" height="5" rx="2.5"/><circle class="cls-4" cx="32" cy="13" r="2"/><circle class="cls-4" cx="59" cy="19" r="2"/><circle class="cls-4" cx="5" cy="19" r="2"/><circle class="cls-4" cx="18" cy="19" r="2"/><circle class="cls-4" cx="46" cy="19" r="2"/><circle class="cls-5" cx="32" cy="38" r="4"/><path class="cls-6" d="M53,38l6-17H57l-6.4,8.23a2,2,0,0,1-1.47.76,55.45,55.45,0,0,1-5.84,8Z"/><path class="cls-7" d="M31.78,48H53V38H43.29A55.26,55.26,0,0,1,31.78,48Z"/><path class="cls-8" d="M53.5,48H31.78a56,56,0,0,1-9.59,5H53.5a2.5,2.5,0,0,0,0-5Z"/></g></svg>